<?xml version="1.0" encoding="iso-8859-1"?>
<!-- Generator: Adobe Illustrator 16.0.0, SVG Export Plug-In . SVG Version: 6.00 Build 0)  -->
<!DOCTYPE svg PUBLIC "-//W3C//DTD SVG 1.1//EN" "http://www.w3.org/Graphics/SVG/1.1/DTD/svg11.dtd">
<svg version="1.1" id="Capa_1" xmlns="http://www.w3.org/2000/svg" xmlns:xlink="http://www.w3.org/1999/xlink" x="0px" y="0px"
	 width="1000px" height="1000px" viewBox="0 0 1000 1000" style="enable-background:new 0 0 1000 1000;" xml:space="preserve">
<path style="fill:#00FFB3;" d="M989.387,7.416l-18.354,115.716l-4.928,31.599l-14.998,94.673c-0.268,2.43-0.637,4.78-1.215,7.051
	c-1.105,5.018-2.898,9.808-5.297,14.26c-8.695,16.292-25.215,27.972-45.021,29.725l-747.454,65.893l-8.974,57.887l791.279-69.766
	l-18.254,115.614l-9.189,57.819l-10.516,66.502c0.008,0.088,0.008,0.189-0.078,0.287l-1.396,9.303
	c0.029,0.277-0.039,0.578-0.209,0.977c-5.705,22.693-25.373,40.34-49.982,42.502l-339.26,29.914l-27.434,173.424l-10.854,68.365
	l-1.047,6.742c0.011,0.107,0.03,0.199-0.057,0.307c-5.17,23.514-25.046,41.947-50.312,44.154l-251.906,22.221l18.354-115.709
	l27.435-173.414l18.342-115.727l113.116-9.967L322.834,693.48L295.4,866.908l69.012-6.096l27.435-173.424l10.099-63.686
	c-0.018-0.275,0.06-0.465,0.141-0.676l1.969-12.617l-0.008-0.09c5.696-20.764,22.467-37.283,44.134-41.984l345.685-30.492
	l9.18-57.808L10.613,549.904l18.365-115.617l9.258-57.918l4.154-26.117l6.922-44.095l1.012-6.075
	c5.101-22.925,24.55-40.939,49.237-43.11l749.274-66.064l4.143-26.22l4.92-31.578l-452.667,39.902l-4.931,31.589l-113.124,9.979
	l4.928-31.588l10.235-64.561l2.273-14.578c6.482-21.689,25.652-38.32,49.48-40.421L989.387,7.416z"/>
</svg>
